# xmcd
#
# Track frame offsets:
# 150
# 15468
# 30832
# 44614
# 55878
# 78420
# 97295
# 107967
# 120267
# 132956
# 151595
# 166140
# 179290
# 193712
#
# Disc length: 2625 seconds
#
#
# Revision: 0
# Processed by: cddbd v1.5.2PL0 Copyright (c) Steve Scherf et al.
# Submitted via: FreeRIP 2.95 
#
DISCID=a90a3f0e
DTITLE=Clint Miller - In The Beginning
DYEAR=2001
DGENRE=Country
TTITLE0=In the Beginning
TTITLE1=Rivers of Babylon
TTITLE2=Sing unto the Lord
TTITLE3=First and Great Commandment
TTITLE4=Behold Thou Art Fair
TTITLE5=If It Had Not Been the Lord
TTITLE6=These Six Things
TTITLE7=My Son, If Sinners Entice Thee
TTITLE8=When Wisdom
TTITLE9=As Unto the Lord
TTITLE10=Happy Shalt Thou Be
TTITLE11=Behold I Am The Lord
TTITLE12=I Had A Dream
TTITLE13=In the Beginning (slight reprise)
EXTD=
EXTT0=
EXTT1=
EXTT2=
EXTT3=
EXTT4=
EXTT5=
EXTT6=
EXTT7=
EXTT8=
EXTT9=
EXTT10=
EXTT11=
EXTT12=
EXTT13=
PLAYORDER=
